<svg xmlns="http://www.w3.org/2000/svg" viewBox="-435 -58 1768 1022" font-family="-apple-system, 'SF Pro Text', 'Helvetica Neue', Arial, sans-serif">
  <!--
    Astronomy Building (bldg 225) - FLOOR 1
    Traced from the posted "Emergency Evacuation Plan" photo. Coordinates use the
    photo's own pixel positions, so any shape can be checked against the photo.
    One wall weight for outside walls, one for inside walls; nothing in between.
  -->
  <style>
    .floor { fill: #ffffff; stroke: #3a3d42; stroke-width: 6; stroke-linejoin: round; }
    .room  { fill: #eef1f4; stroke: #8f959c; stroke-width: 2; }
    .ours  { fill: #f5e3ea; stroke: #8f959c; stroke-width: 2; }
    .core  { fill: #dfe3e8; stroke: #8f959c; stroke-width: 2; }
    .void  { fill: #f7f7f8; stroke: #b5bac0; stroke-width: 2; stroke-dasharray: 10 8; }
    .dim   { fill: #8a8f96; text-anchor: middle; dominant-baseline: middle; }
    .stair { stroke: #8f959c; stroke-width: 2; }
    .hall  { fill: #d7dbe0; stroke: none; }
    .hall-lbl { fill: #6b7280; font-size: 18px; text-anchor: middle; dominant-baseline: middle; }
    .authwall { stroke: #7c3aed; stroke-width: 6; stroke-dasharray: 10 8; }
    .door  { stroke: #ffffff; stroke-width: 10; }
    .lbl   { fill: #2b2e33; font-size: 24px; text-anchor: middle; dominant-baseline: middle; }
    .lblS  { fill: #2b2e33; font-size: 19px; text-anchor: middle; dominant-baseline: middle; }
    .name  { fill: #1d1f23; font-size: 30px; font-weight: 700; text-anchor: middle; dominant-baseline: middle; }
    .exit  { fill: #1a7f37; font-size: 20px; font-weight: 700; text-anchor: middle; dominant-baseline: middle; }
    .compass-letter { font-size: 22px; font-weight: 600; fill: #8a8690; text-anchor: middle; }
    .compass-north  { fill: #8C0B42; }
    .floor-edge { fill:none; stroke:#3a3d42; stroke-width:6; stroke-linejoin:round; }
  </style>

  <!-- OUTSIDE WALLS -->
  <polygon class="floor" points="255,5 250,135 105,135 95,780 450,785 450,820 570,820 570,870 805,870 805,820 925,825 925,790 1280,790 1280,135 1060,135 1060,70 1060,15 950,15 955,135 410,130 410,5"/>

  <!-- HALLWAYS -->
  <rect class="hall" x="340" y="75" width="65" height="565"/>
  <rect class="hall" x="405" y="565" width="630" height="75"/>
  <rect class="hall" x="970" y="140" width="70" height="495"/>
  <rect class="hall" x="640" y="640" width="95" height="220"/>
  <rect class="hall" x="270" y="135" width="70" height="50"/>
  <rect class="hall" x="255" y="290" width="90" height="45"/>
  <text class="hall-lbl" x="688" y="603">Hallway</text>
  <text class="hall-lbl" transform="rotate(-90 1003 388)" x="1003" y="388">Hallway</text>
  <text class="hall-lbl" transform="rotate(-90 373 378)" x="373" y="378">Hallway</text>

  <!-- ROOMS -->
  <rect class="room" x="260" y="10" width="80" height="125"/><text class="lbl" x="300" y="73">123</text>
  <rect class="core" x="340" y="5" width="70" height="70"/>
  <g class="icon" transform="translate(354,19) scale(1.75)"><path d="m21 16-3-3h6zm0-8-3 3h6zm-12-8h-6c-1.654 0-3 1.346-3 3v21h9zm11 6.171v-3.171c0-1.654-1.346-3-3-3h-6v24h9v-6.171l-4-4v-3.657l4-4z" fill="#5f6368"/></g>
  <rect class="room" x="110" y="140" width="160" height="105"/><text class="lbl" x="190" y="193">R113</text>
  <rect class="room" x="110" y="255" width="145" height="75"/><text class="lbl" x="183" y="293">R115</text>
  <rect class="room" x="110" y="340" width="230" height="160"/><text class="lbl" x="225" y="420">100</text>
  <rect class="room" x="105" y="500" width="115" height="130"/><text class="lbl" x="163" y="565">100A</text>
  <rect class="room" x="265" y="500" width="70" height="80"/><text class="lbl" x="300" y="540">101A</text>
  <rect class="room" x="275" y="185" width="65" height="105"/><text class="lblS" x="308" y="238">J114</text>
  <polygon class="room" points="225,500 265,500 265,580 340,580 340,635 225,635 225,568"/><text class="lbl" x="270" y="585">101</text>
  <rect class="room" x="105" y="635" width="230" height="140"/><text class="lbl" x="220" y="705">102</text>
  <rect class="room" x="340" y="640" width="115" height="135"/><text class="lbl" x="398" y="708">103</text>
  <rect class="room" x="460" y="640" width="110" height="175"/><text class="lbl" x="515" y="728">104</text>
  <rect class="room" x="575" y="740" width="65" height="80"/><text class="lblS" x="608" y="780">104A</text>
  <rect class="room" x="735" y="740" width="60" height="75"/><text class="lblS" x="765" y="778">105A</text>
  <rect class="room" x="805" y="640" width="115" height="175"/><text class="lbl" x="863" y="728">105</text>
  <rect class="room" x="405" y="285" width="115" height="75"/><text class="lbl" x="463" y="323">116</text>
  <rect class="room" x="405" y="405" width="214" height="160"/><text class="lbl" x="512" y="485">118</text>
  <rect class="room" x="405" y="140" width="145" height="145"/><text class="lbl" x="478" y="213">112</text>
  <rect class="room" x="550" y="145" width="65" height="140"/><text class="lblS" x="583" y="215">111A</text>
  <rect class="room" x="620" y="145" width="140" height="140"/><text class="lbl" x="690" y="215">111</text>
  <rect class="room" x="765" y="150" width="200" height="130"/><text class="lbl" x="865" y="215">110</text>
  <rect class="room" x="525" y="290" width="155" height="110"/><text class="lbl" x="603" y="345">T116A</text>
  <rect class="room" x="690" y="285" width="165" height="115"/><text class="lbl" x="773" y="343">121A</text>
  <rect class="room" x="860" y="290" width="105" height="110"/><text class="lbl" x="913" y="345">121</text>
  <rect class="room" x="690" y="415" width="280" height="150"/><text class="lbl" x="830" y="490">119</text>
  <rect class="room" x="925" y="640" width="110" height="140"/><text class="lbl" x="980" y="710">106</text>
  <rect class="room" x="1040" y="600" width="225" height="180"/><text class="lbl" x="1153" y="690">107</text>
  <rect class="room" x="1040" y="510" width="225" height="85"/><text class="lbl" x="1153" y="553">107A</text>
  <rect class="room" x="1040" y="380" width="225" height="125"/><text class="lbl" x="1153" y="443">108</text>
  <rect class="room" x="1040" y="240" width="225" height="140"/><text class="lbl" x="1153" y="310">109</text>
  <rect class="room" x="1190" y="150" width="75" height="90"/><text class="lbl" x="1228" y="195">109A</text>

  <rect class="core" x="960" y="25" width="95" height="115"/>
  <g class="stair"><line x1="960" y1="34" x2="1055" y2="34"/><line x1="960" y1="52" x2="1055" y2="52"/><line x1="960" y1="70" x2="1055" y2="70"/><line x1="960" y1="88" x2="1055" y2="88"/><line x1="960" y1="106" x2="1055" y2="106"/><line x1="960" y1="124" x2="1055" y2="124"/></g>
  <rect class="core" x="1055" y="145" width="135" height="95"/>
  <g class="stair"><line x1="1064" y1="145" x2="1064" y2="240"/><line x1="1082" y1="145" x2="1082" y2="240"/><line x1="1100" y1="145" x2="1100" y2="240"/><line x1="1118" y1="145" x2="1118" y2="240"/><line x1="1136" y1="145" x2="1136" y2="240"/><line x1="1154" y1="145" x2="1154" y2="240"/><line x1="1172" y1="145" x2="1172" y2="240"/></g>
  <rect class="core" x="580" y="640" width="60" height="90"/>
  <g class="stair"><line x1="580" y1="649" x2="640" y2="649"/><line x1="580" y1="667" x2="640" y2="667"/><line x1="580" y1="685" x2="640" y2="685"/><line x1="580" y1="703" x2="640" y2="703"/><line x1="580" y1="721" x2="640" y2="721"/></g>
  <rect class="core" x="735" y="640" width="55" height="100"/>
  <g class="stair"><line x1="735" y1="649" x2="790" y2="649"/><line x1="735" y1="667" x2="790" y2="667"/><line x1="735" y1="685" x2="790" y2="685"/><line x1="735" y1="703" x2="790" y2="703"/><line x1="735" y1="721" x2="790" y2="721"/><line x1="735" y1="739" x2="790" y2="739"/></g>
  <polygon class="floor-edge" points="255,5 250,135 105,135 95,780 450,785 450,820 570,820 570,870 805,870 805,820 925,825 925,790 1280,790 1280,135 1060,135 1060,70 1060,15 950,15 955,135 410,130 410,5"/>
  <line class="door" x1="655" y1="870" x2="725" y2="870"/><text class="exit" x="690" y="815">EXIT</text>
  <g class="door-swing" fill="none" stroke="#3a3d42" stroke-width="3" stroke-linecap="round"><line x1="655" y1="870" x2="655" y2="835"/><path d="M655,835 A35,35 0 0 1 690,870" stroke-width="2"/><line x1="725" y1="870" x2="725" y2="835"/><path d="M725,835 A35,35 0 0 0 690,870" stroke-width="2"/></g>
  <line class="door" x1="410" y1="130" x2="410" y2="75"/><text class="exit" x="355" y="103">EXIT</text>
  <g class="door-swing" fill="none" stroke="#3a3d42" stroke-width="3" stroke-linecap="round"><line x1="410" y1="130" x2="383" y2="130"/><path d="M383,130 A28,28 0 0 1 410,103" stroke-width="2"/><line x1="410" y1="75" x2="383" y2="75"/><path d="M383,75 A28,28 0 0 0 410,103" stroke-width="2"/></g>
  <!-- Which way the building really faces; matches the compass on the posted evacuation map. -->
  <g class="compass" transform="translate(2,832) rotate(203)">
    <circle r="80" fill="#ffffff" stroke="#1d1f23" stroke-width="3"/>
    <circle r="49" fill="none" stroke="#f0f0f3" stroke-width="2"/>
    <path d="M0,-38 L11,0 L-11,0 Z" fill="#8C0B42"/>
    <path d="M0,38 L11,0 L-11,0 Z" fill="#c7c7cc"/>
    <circle r="4.5" fill="#ffffff" stroke="#8a8690" stroke-width="2"/>
    <text class="compass-letter compass-north" x="0" y="-52">N</text>
    <text class="compass-letter" x="0" y="62">S</text>
    <text class="compass-letter" x="57" y="6">E</text>
    <text class="compass-letter" x="-57" y="6">W</text>
  </g>
  <g class="legend" transform="translate(-385,60) scale(2.43)"><rect x="0" y="0" width="190" height="280" fill="#ffffff" fill-opacity="0.92" stroke="#c7cad0" stroke-width="1"/><g transform="translate(4,12)"><rect x="0" y="0" width="20" height="14" fill="#eef1f4" stroke="#8f959c" stroke-width="1.5"/><text x="28" y="11" font-size="11" fill="#1d1f23" font-family="sans-serif">Room</text></g><g transform="translate(4,36)"><rect x="0" y="0" width="20" height="14" fill="#cfe0ff" stroke="#2f6feb" stroke-width="1.5"/><text x="28" y="11" font-size="11" fill="#1d1f23" font-family="sans-serif">Selected room</text></g><g transform="translate(4,60)"><rect x="0" y="0" width="20" height="14" fill="#dfe3e8" stroke="#8f959c" stroke-width="1.5"/><text x="28" y="11" font-size="11" fill="#1d1f23" font-family="sans-serif">Core</text></g><g transform="translate(4,84)"><rect x="0" y="0" width="20" height="14" fill="#dfe3e8" stroke="#8f959c" stroke-width="1.5"/><g class="icon" transform="translate(4,1) scale(0.496)"><path d="m21 16-3-3h6zm0-8-3 3h6zm-12-8h-6c-1.654 0-3 1.346-3 3v21h9zm11 6.171v-3.171c0-1.654-1.346-3-3-3h-6v24h9v-6.171l-4-4v-3.657l4-4z" fill="#5f6368"/></g><text x="28" y="11" font-size="11" fill="#1d1f23" font-family="sans-serif">Elevator</text></g><g transform="translate(4,108)"><rect x="0" y="0" width="20" height="14" fill="#f7f7f8" stroke="#b5bac0" stroke-width="1.5" stroke-dasharray="3 2"/><text x="28" y="11" font-size="11" fill="#1d1f23" font-family="sans-serif">Void (open to below)</text></g><g transform="translate(4,132)"><rect x="0" y="0" width="20" height="14" fill="#dfe3e8" stroke="#8f959c" stroke-width="1.5"/><line x1="3" y1="4" x2="17" y2="4" stroke="#8f959c" stroke-width="1.5"/><line x1="3" y1="7" x2="17" y2="7" stroke="#8f959c" stroke-width="1.5"/><line x1="3" y1="10" x2="17" y2="10" stroke="#8f959c" stroke-width="1.5"/><text x="28" y="11" font-size="11" fill="#1d1f23" font-family="sans-serif">Stairs</text></g><g transform="translate(4,156)"><line x1="0" y1="4" x2="7" y2="4" stroke="#3a3d42" stroke-width="2.5"/><line x1="13" y1="4" x2="20" y2="4" stroke="#3a3d42" stroke-width="2.5"/><text x="10" y="13" fill="#1a7f37" font-size="7" font-weight="700" text-anchor="middle">EXIT</text><text x="28" y="11" font-size="11" fill="#1d1f23" font-family="sans-serif">Doors</text></g><g transform="translate(4,180)"><rect x="0" y="0" width="20" height="14" fill="#d7dbe0" stroke="#d7dbe0" stroke-width="1.5"/><text x="28" y="11" font-size="11" fill="#1d1f23" font-family="sans-serif">Hallway</text></g><g transform="translate(4,204)"><line x1="0" y1="8" x2="20" y2="8" stroke="#7c3aed" stroke-width="2.5" stroke-dasharray="4 3"/><path d="M8,7 V5 A2,2 0 0 1 12,5 V7" fill="none" stroke="#7c3aed" stroke-width="1.2"/><rect x="7" y="7" width="6" height="5" rx="1" fill="#ffffff" stroke="#7c3aed" stroke-width="1.2"/><text x="28" y="11" font-size="11" fill="#1d1f23" font-family="sans-serif">Staff only (no public access)</text></g><g transform="translate(4,228)"><circle cx="10" cy="7" r="6" fill="#ffffff" stroke="#e6e6ea" stroke-width="1.5"/><path d="M10,2 L12,7 L8,7 Z" fill="#8C0B42"/><text x="28" y="11" font-size="11" fill="#1d1f23" font-family="sans-serif">Compass</text></g><g transform="translate(4,252)"><rect x="0" y="0" width="20" height="14" fill="#ffffff" stroke="#3a3d42" stroke-width="1.5"/><text x="28" y="11" font-size="11" fill="#1d1f23" font-family="sans-serif">Outline</text></g></g>
</svg>
