<svg xmlns="http://www.w3.org/2000/svg" viewBox="-57 -57 1314 1729" font-family="-apple-system, 'SF Pro Text', 'Helvetica Neue', Arial, sans-serif">
  <!--
    Goddard Hall (bldg 10) - FLOOR 3
    Traced from the posted "Emergency Evacuation Plan" photo. Coordinates use the
    photo's own pixel positions, so any shape can be checked against the photo.
    One wall weight for outside walls, one for inside walls; nothing in between.
  -->
  <style>
    .floor { fill: #ffffff; stroke: #3a3d42; stroke-width: 6; stroke-linejoin: round; }
    .room  { fill: #eef1f4; stroke: #8f959c; stroke-width: 2; }
    .ours  { fill: #f5e3ea; stroke: #8f959c; stroke-width: 2; }
    .core  { fill: #dfe3e8; stroke: #8f959c; stroke-width: 2; }
    .void  { fill: #f7f7f8; stroke: #b5bac0; stroke-width: 2; stroke-dasharray: 10 8; }
    .dim   { fill: #8a8f96; text-anchor: middle; dominant-baseline: middle; }
    .stair { stroke: #8f959c; stroke-width: 2; }
    .hall  { fill: #d7dbe0; stroke: none; }
    .hall-lbl { fill: #6b7280; font-size: 18px; text-anchor: middle; dominant-baseline: middle; }
    .authwall { stroke: #7c3aed; stroke-width: 6; stroke-dasharray: 10 8; }
    .door  { stroke: #ffffff; stroke-width: 10; }
    .lbl   { fill: #2b2e33; font-size: 24px; text-anchor: middle; dominant-baseline: middle; }
    .lblS  { fill: #2b2e33; font-size: 19px; text-anchor: middle; dominant-baseline: middle; }
    .name  { fill: #1d1f23; font-size: 30px; font-weight: 700; text-anchor: middle; dominant-baseline: middle; }
    .exit  { fill: #1a7f37; font-size: 20px; font-weight: 700; text-anchor: middle; dominant-baseline: middle; }
    .compass-letter { font-size: 22px; font-weight: 600; fill: #8a8690; text-anchor: middle; }
    .compass-north  { fill: #8C0B42; }
    .floor-edge { fill:none; stroke:#3a3d42; stroke-width:6; stroke-linejoin:round; }
  </style>

  <!-- OUTSIDE WALLS -->
  <polygon class="floor" points="-5,5 10,1530 460,1520 460,1620 755,1605 755,1505 1205,1495 1205,855 735,870 740,420 1035,415 1035,-5"/>

  <!-- HALLWAYS -->
  <rect class="hall" x="525" y="1150" width="505" height="85"/>
  <rect class="hall" x="530" y="1235" width="125" height="110"/>
  <rect class="hall" x="635" y="195" width="135" height="200"/>
  <rect class="hall" x="635" y="395" width="75" height="500"/>
  <rect class="hall" x="530" y="895" width="190" height="255"/>
  <rect class="hall" x="265" y="925" width="265" height="125"/>
  <rect class="hall" x="265" y="1055" width="70" height="245"/>
  <rect class="hall" x="180" y="665" width="80" height="570"/>
  <rect class="hall" x="425" y="1050" width="105" height="60"/>
  <rect class="hall" x="655" y="1235" width="65" height="45"/>
  <text class="hall-lbl" transform="rotate(-90 673 738)" x="673" y="738">Hallway</text>
  <text class="hall-lbl" transform="rotate(-90 623 1088)" x="623" y="1088">Hallway</text>
  <text class="hall-lbl" transform="rotate(-90 673 408)" x="673" y="408">Hallway</text>
  <text class="hall-lbl" transform="rotate(-90 298 1178)" x="298" y="1178">Hallway</text>
  <text class="hall-lbl" transform="rotate(-90 218 948)" x="218" y="948">Hallway</text>
  <text class="hall-lbl" transform="rotate(-90 218 748)" x="218" y="748">Hallway</text>
  <text class="hall-lbl" transform="rotate(-90 218 1148)" x="218" y="1148">Hallway</text>

  <!-- ROOMS -->
  <rect class="room" x="285" y="100" width="190" height="205"/><text class="lbl" x="380" y="203">310B</text>
  <rect class="room" x="10" y="40" width="275" height="260"/><text class="lbl" x="148" y="170">310A</text>
  <rect class="room" x="10" y="305" width="250" height="355"/><text class="lbl" x="135" y="483">308</text>
  <rect class="room" x="260" y="310" width="220" height="495"/><text class="lbl" x="370" y="558">310</text>
  <rect class="room" x="375" y="815" width="105" height="100"/><text class="lbl" x="428" y="865">314</text>
  <rect class="room" x="340" y="1105" width="180" height="175"/><text class="lbl" x="430" y="1193">R300B</text>
  <rect class="room" x="265" y="1305" width="250" height="175"/><text class="lbl" x="390" y="1393">R300A</text>
  <rect class="room" x="30" y="1245" width="230" height="240"/><text class="lbl" x="145" y="1365">302</text>
  <rect class="room" x="25" y="660" width="150" height="340"/><text class="lbl" x="100" y="830">306</text>
  <rect class="room" x="25" y="1005" width="155" height="235"/><text class="lbl" x="103" y="1123">304</text>
  <rect class="room" x="720" y="895" width="220" height="255"/><text class="lbl" x="830" y="1023">303</text>
  <rect class="room" x="940" y="895" width="235" height="255"/><text class="lbl" x="1058" y="1023">305</text>
  <rect class="room" x="945" y="1235" width="220" height="230"/><text class="lbl" x="1055" y="1350">307</text>
  <rect class="room" x="755" y="1235" width="190" height="230"/><text class="lbl" x="850" y="1350">309</text>
  <rect class="core" x="635" y="25" width="135" height="170"/>
  <g class="icon" transform="translate(662,70) scale(3.375)"><path d="m21 16-3-3h6zm0-8-3 3h6zm-12-8h-6c-1.654 0-3 1.346-3 3v21h9zm11 6.171v-3.171c0-1.654-1.346-3-3-3h-6v24h9v-6.171l-4-4v-3.657l4-4z" fill="#5f6368"/></g>

  <rect class="core" x="535" y="1345" width="115" height="145"/>
  <g class="stair"><line x1="535" y1="1354" x2="650" y2="1354"/><line x1="535" y1="1372" x2="650" y2="1372"/><line x1="535" y1="1390" x2="650" y2="1390"/><line x1="535" y1="1408" x2="650" y2="1408"/><line x1="535" y1="1426" x2="650" y2="1426"/><line x1="535" y1="1444" x2="650" y2="1444"/><line x1="535" y1="1462" x2="650" y2="1462"/><line x1="535" y1="1480" x2="650" y2="1480"/></g>
  <rect class="core" x="660" y="1280" width="60" height="205"/>
  <g class="stair"><line x1="660" y1="1289" x2="720" y2="1289"/><line x1="660" y1="1307" x2="720" y2="1307"/><line x1="660" y1="1325" x2="720" y2="1325"/><line x1="660" y1="1343" x2="720" y2="1343"/><line x1="660" y1="1361" x2="720" y2="1361"/><line x1="660" y1="1379" x2="720" y2="1379"/><line x1="660" y1="1397" x2="720" y2="1397"/><line x1="660" y1="1415" x2="720" y2="1415"/><line x1="660" y1="1433" x2="720" y2="1433"/><line x1="660" y1="1451" x2="720" y2="1451"/><line x1="660" y1="1469" x2="720" y2="1469"/></g>
  <rect class="core" x="770" y="25" width="235" height="370"/>
  <g class="stair"><line x1="770" y1="34" x2="1005" y2="34"/><line x1="770" y1="52" x2="1005" y2="52"/><line x1="770" y1="70" x2="1005" y2="70"/><line x1="770" y1="88" x2="1005" y2="88"/><line x1="770" y1="106" x2="1005" y2="106"/><line x1="770" y1="124" x2="1005" y2="124"/><line x1="770" y1="142" x2="1005" y2="142"/><line x1="770" y1="160" x2="1005" y2="160"/><line x1="770" y1="178" x2="1005" y2="178"/><line x1="770" y1="196" x2="1005" y2="196"/><line x1="770" y1="214" x2="1005" y2="214"/><line x1="770" y1="232" x2="1005" y2="232"/><line x1="770" y1="250" x2="1005" y2="250"/><line x1="770" y1="268" x2="1005" y2="268"/><line x1="770" y1="286" x2="1005" y2="286"/><line x1="770" y1="304" x2="1005" y2="304"/><line x1="770" y1="322" x2="1005" y2="322"/><line x1="770" y1="340" x2="1005" y2="340"/><line x1="770" y1="358" x2="1005" y2="358"/><line x1="770" y1="376" x2="1005" y2="376"/><line x1="770" y1="394" x2="1005" y2="394"/></g>
  <polygon class="floor-edge" points="-5,5 10,1530 460,1520 460,1620 755,1605 755,1505 1205,1495 1205,855 735,870 740,420 1035,415 1035,-5"/>
</svg>
