<?xml version="1.0" encoding="utf-8"?>
<svg xmlns="http://www.w3.org/2000/svg" viewBox="0 0 512 512" style="">
  <defs>
    <marker id="blue-arrow" markerUnits="userSpaceOnUse" viewBox="0 0 10 10" refX="9" refY="5" markerWidth="9" markerHeight="9" orient="auto-start-reverse">
      <path d="M0 0L10 5L0 10Z" fill="#1E88D8"/>
    </marker>
    <marker id="red-arrow" markerUnits="userSpaceOnUse" viewBox="0 0 10 10" refX="9" refY="5" markerWidth="9" markerHeight="9" orient="auto-start-reverse">
      <path d="M0 0L10 5L0 10Z" fill="#B32121"/>
    </marker>
  </defs>
  <title>Hardman and Jacobs emergency evacuation plan — editable SVG trace</title>
  <desc>Editable SVG based on the photographed emergency evacuation plan poster.</desc>
  <rect x="-47.623" y="-208.02" width="700" height="930" fill="#d6d0c3" style="stroke-width: 1px;"/>
  <rect x="-37.623" y="-198.02" width="660" height="890" fill="#111" style="stroke-width: 1px;"/>
  <rect x="-23.623" y="-184.02" width="632" height="862" fill="#fff" style="stroke-width: 1px;"/>
  <rect x="-23.623" y="-184.02" width="90" height="770" fill="#951d1d" style="stroke-width: 1px;"/>
  <rect x="-23.623" y="585.978" width="632" height="92" fill="#d9e0d8" style="stroke-width: 1px;"/>
  <rect x="66.377" y="-184.02" width="542" height="770" fill="#fff" style="stroke-width: 1px;"/>
  <g transform="matrix(0.88, 0, 0, 0.88, -29.62324, -190.021744)">
    <path d="M130 5h53v48h-53Z" fill="#fff" stroke="#808080" stroke-width="1" stroke-linejoin="miter"/>
    <text x="156.5" y="29.0" fill="#202020" text-anchor="middle" dominant-baseline="middle" font-family="Arial, Helvetica, sans-serif" font-size="7.8" font-weight="600" style="white-space: pre;"><tspan x="156.5" dy="0" fill="#202020">128B</tspan></text>
    <path d="M183 5h33v48h-33Z" fill="#fff" stroke="#808080" stroke-width="1" stroke-linejoin="miter"/>
    <text x="199.5" y="29.0" fill="#202020" text-anchor="middle" dominant-baseline="middle" font-family="Arial, Helvetica, sans-serif" font-size="7.8" font-weight="600" style="white-space: pre;"><tspan x="199.5" dy="0" fill="#202020">128C</tspan></text>
    <path d="M216 5h33v48h-33Z" fill="#fff" stroke="#808080" stroke-width="1" stroke-linejoin="miter"/>
    <text x="232.5" y="29.0" fill="#202020" text-anchor="middle" dominant-baseline="middle" font-family="Arial, Helvetica, sans-serif" font-size="7.8" font-weight="600" style="white-space: pre;"><tspan x="232.5" dy="0" fill="#202020">128D</tspan></text>
    <path d="M249 5h33v48h-33Z" fill="#fff" stroke="#808080" stroke-width="1" stroke-linejoin="miter"/>
    <text x="265.5" y="29.0" fill="#202020" text-anchor="middle" dominant-baseline="middle" font-family="Arial, Helvetica, sans-serif" font-size="7.8" font-weight="600" style="white-space: pre;"><tspan x="265.5" dy="0" fill="#202020">128E</tspan></text>
    <path d="M282 5h33v48h-33Z" fill="#fff" stroke="#808080" stroke-width="1" stroke-linejoin="miter"/>
    <text x="298.5" y="29.0" fill="#202020" text-anchor="middle" dominant-baseline="middle" font-family="Arial, Helvetica, sans-serif" font-size="7.8" font-weight="600" style="white-space: pre;"><tspan x="298.5" dy="0" fill="#202020">128F</tspan></text>
    <path d="M315 5h33v48h-33Z" fill="#fff" stroke="#808080" stroke-width="1" stroke-linejoin="miter"/>
    <text x="331.5" y="29.0" fill="#202020" text-anchor="middle" dominant-baseline="middle" font-family="Arial, Helvetica, sans-serif" font-size="7.8" font-weight="600" style="white-space: pre;"><tspan x="331.5" dy="0" fill="#202020">128G</tspan></text>
    <path d="M348 5h33v48h-33Z" fill="#fff" stroke="#808080" stroke-width="1" stroke-linejoin="miter"/>
    <text x="364.5" y="29.0" fill="#202020" text-anchor="middle" dominant-baseline="middle" font-family="Arial, Helvetica, sans-serif" font-size="7.8" font-weight="600" style="white-space: pre;"><tspan x="364.5" dy="0" fill="#202020">128H</tspan></text>
    <path d="M381 5h33v48h-33Z" fill="#fff" stroke="#808080" stroke-width="1" stroke-linejoin="miter"/>
    <text x="397.5" y="29.0" fill="#202020" text-anchor="middle" dominant-baseline="middle" font-family="Arial, Helvetica, sans-serif" font-size="7.8" font-weight="600" style="white-space: pre;"><tspan x="397.5" dy="0" fill="#202020">128J</tspan></text>
    <path d="M414 5h35v48h-35Z" fill="#fff" stroke="#808080" stroke-width="1" stroke-linejoin="miter"/>
    <text x="431.5" y="29.0" fill="#202020" text-anchor="middle" dominant-baseline="middle" font-family="Arial, Helvetica, sans-serif" font-size="7.8" font-weight="600" style="white-space: pre;"><tspan x="431.5" dy="0" fill="#202020">128K</tspan></text>
    <path d="M449 5h34v48h-34Z" fill="#fff" stroke="#808080" stroke-width="1" stroke-linejoin="miter"/>
    <text x="466.0" y="29.0" fill="#202020" text-anchor="middle" dominant-baseline="middle" font-family="Arial, Helvetica, sans-serif" font-size="7.8" font-weight="600" style="white-space: pre;"><tspan x="466.0" dy="0" fill="#202020">128L</tspan></text>
    <path d="M134 54H449V190H429V197H224V185H219V54Z" fill="#fff" stroke="#808080" stroke-width="1" stroke-linejoin="miter"/>
    <path d="M134 54H219V185H191V163H188V117H134Z" fill="#fff" stroke="#808080" stroke-width="1" stroke-linejoin="miter"/>
    <text x="180" y="82.0" fill="#202020" text-anchor="middle" dominant-baseline="middle" font-family="Arial, Helvetica, sans-serif" font-size="9" font-weight="600" style="white-space: pre;"><tspan x="180" dy="0" fill="#202020">128</tspan></text>
    <path d="M136 117h52v46h-52Z" fill="#fff" stroke="#808080" stroke-width="1" stroke-linejoin="miter"/>
    <text x="162.0" y="140.0" fill="#202020" text-anchor="middle" dominant-baseline="middle" font-family="Arial, Helvetica, sans-serif" font-size="8.7" font-weight="600" style="white-space: pre;"><tspan x="162.0" dy="0" fill="#202020">128A</tspan></text>
    <path d="M136 164h55v27h-55Z" fill="#fff" stroke="#808080" stroke-width="1" stroke-linejoin="miter"/>
    <path d="M344 142h38v55h-38Z" fill="#fff" stroke="#808080" stroke-width="1" stroke-linejoin="miter"/>
    <text x="363.0" y="169.5" fill="#202020" text-anchor="middle" dominant-baseline="middle" font-family="Arial, Helvetica, sans-serif" font-size="7.6" font-weight="600" style="white-space: pre;"><tspan x="363.0" dy="0" fill="#202020">128Q</tspan></text>
    <text x="330" y="82.0" fill="#202020" text-anchor="middle" dominant-baseline="middle" font-family="Arial, Helvetica, sans-serif" font-size="12" font-weight="600" style="white-space: pre;"><tspan x="330" dy="0" fill="#202020">STUDENT SUCCESS /</tspan></text>
    <text x="330" y="98.0" fill="#202020" text-anchor="middle" dominant-baseline="middle" font-family="Arial, Helvetica, sans-serif" font-size="12" font-weight="600" style="white-space: pre;"><tspan x="330" dy="0" fill="#202020">UPWARD BOUND</tspan></text>
    <text x="331" y="116.0" fill="#202020" text-anchor="middle" dominant-baseline="middle" font-family="Arial, Helvetica, sans-serif" font-size="9" font-weight="600" style="white-space: pre;"><tspan x="331" dy="0" fill="#202020">128R</tspan></text>
    <path d="M449 54h34v17h-34Z" fill="#fff" stroke="#808080" stroke-width="1" stroke-linejoin="miter"/>
    <path d="M449 72h34v41h-34Z" fill="#fff" stroke="#808080" stroke-width="1" stroke-linejoin="miter"/>
    <text x="466.0" y="92.5" fill="#202020" text-anchor="middle" dominant-baseline="middle" font-family="Arial, Helvetica, sans-serif" font-size="7.4" font-weight="600" style="white-space: pre;"><tspan x="466.0" dy="0" fill="#202020">128N</tspan></text>
    <path d="M449 113h34v41h-34Z" fill="#fff" stroke="#808080" stroke-width="1" stroke-linejoin="miter"/>
    <text x="466.0" y="133.5" fill="#202020" text-anchor="middle" dominant-baseline="middle" font-family="Arial, Helvetica, sans-serif" font-size="7.4" font-weight="600" style="white-space: pre;"><tspan x="466.0" dy="0" fill="#202020">128O</tspan></text>
    <path d="M449 154h34v43h-34Z" fill="#fff" stroke="#808080" stroke-width="1" stroke-linejoin="miter"/>
    <text x="466.0" y="175.5" fill="#202020" text-anchor="middle" dominant-baseline="middle" font-family="Arial, Helvetica, sans-serif" font-size="7.4" font-weight="600" style="white-space: pre;"><tspan x="466.0" dy="0" fill="#202020">128P</tspan></text>
    <path d="M485 5h44v79h-44Z" fill="#fff" stroke="#808080" stroke-width="1" stroke-linejoin="miter"/>
    <text x="507.0" y="44.5" fill="#202020" text-anchor="middle" dominant-baseline="middle" font-family="Arial, Helvetica, sans-serif" font-size="9" font-weight="600" style="white-space: pre;"><tspan x="507.0" dy="0" fill="#202020">R134</tspan></text>
    <path d="M532 5H576V70H572V107H540V84H532Z" fill="#fff" stroke="#808080" stroke-width="1" stroke-linejoin="miter"/>
    <text x="553" y="27.0" fill="#202020" text-anchor="middle" dominant-baseline="middle" font-family="Arial, Helvetica, sans-serif" font-size="9" font-weight="600" style="white-space: pre;"><tspan x="553" dy="0" fill="#202020">R133</tspan></text>
    <path d="M484 84H532V99H540V195H484Z" fill="#fff" stroke="#808080" stroke-width="1" stroke-linejoin="miter"/>
    <rect x="482.281" y="110.652" width="32.607" height="44.287" style="stroke: rgb(0, 0, 0); fill: rgb(255, 255, 255);"/>
    <text x="499.769" y="146.062" fill="#202020" text-anchor="middle" dominant-baseline="middle" font-family="Arial, Helvetica, sans-serif" font-size="7.5" font-weight="600" style="white-space: pre;"><tspan x="499.769" dy="0" fill="#202020" style="word-spacing: 0px;">M132</tspan></text>
    <path d="M540 111h34v39h-34Z" fill="#fff" stroke="#808080" stroke-width="1" stroke-linejoin="miter"/>
    <text x="557.0" y="130.5" fill="#202020" text-anchor="middle" dominant-baseline="middle" font-family="Arial, Helvetica, sans-serif" font-size="7.5" font-weight="600" style="white-space: pre;"><tspan x="557.0" dy="0" fill="#202020">R131</tspan></text>
    <path d="M540 150h34v45h-34Z" fill="#fff" stroke="#808080" stroke-width="1" stroke-linejoin="miter"/>
    <text x="557.0" y="172.5" fill="#202020" text-anchor="middle" dominant-baseline="middle" font-family="Arial, Helvetica, sans-serif" font-size="7.5" font-weight="600" style="white-space: pre;"><tspan x="557.0" dy="0" fill="#202020">J129</tspan></text>
    <path d="M192 198H574V250H535V254H500V253H226V251H192Z" fill="#fff" stroke="#808080" stroke-width="1" stroke-linejoin="miter"/>
    <path d="M193 252H226V509H193Z" fill="#fff" stroke="#808080" stroke-width="1" stroke-linejoin="miter"/>
    <path d="M500 251H535V830H500Z" fill="#fff" stroke="#808080" stroke-width="1" stroke-linejoin="miter"/>
    <path d="M193 471H500V508H193Z" fill="#fff" stroke="#808080" stroke-width="1" stroke-linejoin="miter"/>
    <path d="M193 508H350V642H275V643H193Z" fill="#fff" stroke="#808080" stroke-width="1" stroke-linejoin="miter"/>
    <path d="M136 194H166V226H190V271H137Z" fill="#fff" stroke="#808080" stroke-width="1" stroke-linejoin="miter"/>
    <text x="175" y="242.0" fill="#202020" text-anchor="middle" dominant-baseline="middle" font-family="Arial, Helvetica, sans-serif" font-size="8.5" font-weight="600" style="white-space: pre;"><tspan x="175" dy="0" fill="#202020">ST1</tspan></text>
    <path d="M142 199H166" fill="none" stroke="#808080" stroke-width="0.65" stroke-linejoin="miter"/>
    <path d="M142 203H166" fill="none" stroke="#808080" stroke-width="0.65" stroke-linejoin="miter"/>
    <path d="M142 207H166" fill="none" stroke="#808080" stroke-width="0.65" stroke-linejoin="miter"/>
    <path d="M142 211H166" fill="none" stroke="#808080" stroke-width="0.65" stroke-linejoin="miter"/>
    <path d="M142 215H166" fill="none" stroke="#808080" stroke-width="0.65" stroke-linejoin="miter"/>
    <path d="M142 219H166" fill="none" stroke="#808080" stroke-width="0.65" stroke-linejoin="miter"/>
    <path d="M142 223H166" fill="none" stroke="#808080" stroke-width="0.65" stroke-linejoin="miter"/>
    <path d="M456 197V219" fill="none" stroke="#808080" stroke-width="0.7" stroke-linejoin="miter"/>
    <path d="M460 197V219" fill="none" stroke="#808080" stroke-width="0.7" stroke-linejoin="miter"/>
    <path d="M464 197V219" fill="none" stroke="#808080" stroke-width="0.7" stroke-linejoin="miter"/>
    <path d="M468 197V219" fill="none" stroke="#808080" stroke-width="0.7" stroke-linejoin="miter"/>
    <path d="M227 257H282V283L262 317V347H227Z" fill="#fff" stroke="#808080" stroke-width="1" stroke-linejoin="miter"/>
    <text x="250" y="285.0" fill="#202020" text-anchor="middle" dominant-baseline="middle" font-family="Arial, Helvetica, sans-serif" font-size="8.7" font-weight="600" style="white-space: pre;"><tspan x="250" dy="0" fill="#202020">M127</tspan></text>
    <path d="M282 257H476V282L500 307V414L477 438V466H288L263 414V317L282 283Z" fill="#fff" stroke="#808080" stroke-width="1" stroke-linejoin="miter"/>
    <text x="387" y="347.0" fill="#202020" text-anchor="middle" dominant-baseline="middle" font-family="Arial, Helvetica, sans-serif" font-size="12" font-weight="600" style="white-space: pre;"><tspan x="387" dy="0" fill="#202020">LECTURE HALL</tspan></text>
    <text x="387" y="362.0" fill="#202020" text-anchor="middle" dominant-baseline="middle" font-family="Arial, Helvetica, sans-serif" font-size="9" font-weight="600" style="white-space: pre;"><tspan x="387" dy="0" fill="#202020">125</tspan></text>
    <path d="M227 348H262V380H227Z" fill="#fff" stroke="#808080" stroke-width="1" stroke-linejoin="miter"/>
    <path d="M227 380h36v59h-36Z" fill="#fff" stroke="#808080" stroke-width="1" stroke-linejoin="miter"/>
    <text x="245.0" y="409.5" fill="#202020" text-anchor="middle" dominant-baseline="middle" font-family="Arial, Helvetica, sans-serif" font-size="8" font-weight="600" style="white-space: pre;"><tspan x="245.0" dy="0" fill="#202020">M123</tspan></text>
    <path d="M229 440h35v27h-35Z" fill="#fff" stroke="#808080" stroke-width="1" stroke-linejoin="miter"/>
    <text x="246.5" y="453.5" fill="#202020" text-anchor="middle" dominant-baseline="middle" font-family="Arial, Helvetica, sans-serif" font-size="7.4" font-weight="600" style="white-space: pre;"><tspan x="246.5" dy="0" fill="#202020">S122</tspan></text>
    <path d="M264 440H276L288 466H264Z" fill="#fff" stroke="#808080" stroke-width="1" stroke-linejoin="miter"/>
    <text x="275" y="454.0" fill="#202020" text-anchor="middle" dominant-baseline="middle" font-family="Arial, Helvetica, sans-serif" font-size="6.8" font-weight="600" style="white-space: pre;"><tspan x="275" dy="0" fill="#202020">S125</tspan></text>
    <path d="M535 252H659V463H535Z" fill="#fff" stroke="#808080" stroke-width="1" stroke-linejoin="miter"/>
    <text x="600" y="346.0" fill="#202020" text-anchor="middle" dominant-baseline="middle" font-family="Arial, Helvetica, sans-serif" font-size="11" font-weight="600" style="white-space: pre;"><tspan x="600" dy="0" fill="#202020">CLASSROOM</tspan></text>
    <text x="600" y="362.0" fill="#202020" text-anchor="middle" dominant-baseline="middle" font-family="Arial, Helvetica, sans-serif" font-size="9" font-weight="600" style="white-space: pre;"><tspan x="600" dy="0" fill="#202020">126</tspan></text>
    <path d="M 193.487 469.053 L 504.38 469.053 L 504.38 507.376 L 352.478 507.376 L 352.478 641.505 L 276.527 641.505 L 276.527 642.513 L 193.487 642.513 L 193.487 469.053 Z" fill="#fff" stroke="#808080" stroke-width="1" stroke-linejoin="miter" style=""/>
    <path d="M350 509H500V642H350Z" fill="#fff" stroke="#808080" stroke-width="1" stroke-linejoin="miter"/>
    <text x="424" y="556.0" fill="#202020" text-anchor="middle" dominant-baseline="middle" font-family="Arial, Helvetica, sans-serif" font-size="11" font-weight="600" style="white-space: pre;"><tspan x="424" dy="0" fill="#202020">COMPUTER LAB</tspan></text>
    <text x="424" y="571.0" fill="#202020" text-anchor="middle" dominant-baseline="middle" font-family="Arial, Helvetica, sans-serif" font-size="9" font-weight="600" style="white-space: pre;"><tspan x="424" dy="0" fill="#202020">101</tspan></text>
    <path d="M500 463H535V509H500Z" fill="#fff" stroke="#808080" stroke-width="1" stroke-linejoin="miter"/>
    <path d="M535 465h26v42h-26Z" fill="#fff" stroke="#808080" stroke-width="1" stroke-linejoin="miter"/>
    <text x="548.0" y="486.0" fill="#202020" text-anchor="middle" dominant-baseline="middle" font-family="Arial, Helvetica, sans-serif" font-size="6.5" font-weight="600" style="white-space: pre;"><tspan x="548.0" dy="0" fill="#202020">M118</tspan></text>
    <path d="M529 537h33v67h-33Z" fill="#fff" stroke="#808080" stroke-width="1" stroke-linejoin="miter"/>
    <text x="545.5" y="570.5" fill="#202020" text-anchor="middle" dominant-baseline="middle" font-family="Arial, Helvetica, sans-serif" font-size="7.3" font-weight="600" style="white-space: pre;"><tspan x="545.5" dy="0" fill="#202020">101A</tspan></text>
    <path d="M277 643H323V701H313V731H277Z" fill="#fff" stroke="#808080" stroke-width="1" stroke-linejoin="miter"/>
    <text x="299" y="673.0" fill="#202020" text-anchor="middle" dominant-baseline="middle" font-family="Arial, Helvetica, sans-serif" font-size="8.5" font-weight="600" style="white-space: pre;"><tspan x="299" dy="0" fill="#202020">121</tspan></text>
    <path d="M323 643H386V731H313V701H323Z" fill="#fff" stroke="#808080" stroke-width="1" stroke-linejoin="miter"/>
    <text x="354" y="675.0" fill="#202020" text-anchor="middle" dominant-baseline="middle" font-family="Arial, Helvetica, sans-serif" font-size="8.5" font-weight="600" style="white-space: pre;"><tspan x="354" dy="0" fill="#202020">119</tspan></text>
    <path d="M386 643h36v88h-36Z" fill="#fff" stroke="#808080" stroke-width="1" stroke-linejoin="miter"/>
    <text x="404.0" y="687.0" fill="#202020" text-anchor="middle" dominant-baseline="middle" font-family="Arial, Helvetica, sans-serif" font-size="7.8" font-weight="600" style="white-space: pre;"><tspan x="404.0" dy="0" fill="#202020">S117</tspan></text>
    <path d="M422 643h44v88h-44Z" fill="#fff" stroke="#808080" stroke-width="1" stroke-linejoin="miter"/>
    <text x="444.0" y="687.0" fill="#202020" text-anchor="middle" dominant-baseline="middle" font-family="Arial, Helvetica, sans-serif" font-size="7.8" font-weight="600" style="white-space: pre;"><tspan x="444.0" dy="0" fill="#202020">S115</tspan></text>
    <path d="M466 643h32v35h-32Z" fill="#fff" stroke="#808080" stroke-width="1" stroke-linejoin="miter"/>
    <text x="482.0" y="660.5" fill="#202020" text-anchor="middle" dominant-baseline="middle" font-family="Arial, Helvetica, sans-serif" font-size="7.6" font-weight="600" style="white-space: pre;"><tspan x="482.0" dy="0" fill="#202020">102</tspan></text>
    <path d="M466 678h32v33h-32Z" fill="#fff" stroke="#808080" stroke-width="1" stroke-linejoin="miter"/>
    <text x="482.0" y="694.5" fill="#202020" text-anchor="middle" dominant-baseline="middle" font-family="Arial, Helvetica, sans-serif" font-size="7.6" font-weight="600" style="white-space: pre;"><tspan x="482.0" dy="0" fill="#202020">104</tspan></text>
    <path d="M466 711h32v20h-32Z" fill="#fff" stroke="#808080" stroke-width="1" stroke-linejoin="miter"/>
    <text x="482.0" y="721.0" fill="#202020" text-anchor="middle" dominant-baseline="middle" font-family="Arial, Helvetica, sans-serif" font-size="6.7" font-weight="600" style="white-space: pre;"><tspan x="482.0" dy="0" fill="#202020">T106</tspan></text>
    <path d="M277 731H500V757H277Z" fill="#fff" stroke="#808080" stroke-width="1" stroke-linejoin="miter"/>
    <text x="331" y="745.0" fill="#202020" text-anchor="middle" dominant-baseline="middle" font-family="Arial, Helvetica, sans-serif" font-size="8" font-weight="600" style="white-space: pre;"><tspan x="331" dy="0" fill="#202020">ICT</tspan></text>
    <path d="M279 757h37v56h-37Z" fill="#fff" stroke="#808080" stroke-width="1" stroke-linejoin="miter"/>
    <text x="297.5" y="785.0" fill="#202020" text-anchor="middle" dominant-baseline="middle" font-family="Arial, Helvetica, sans-serif" font-size="7.8" font-weight="600" style="white-space: pre;"><tspan x="297.5" dy="0" fill="#202020">120</tspan></text>
    <path d="M316 757h70v56h-70Z" fill="#fff" stroke="#808080" stroke-width="1" stroke-linejoin="miter"/>
    <text x="351.0" y="785.0" fill="#202020" text-anchor="middle" dominant-baseline="middle" font-family="Arial, Helvetica, sans-serif" font-size="8.5" font-weight="600" style="white-space: pre;"><tspan x="351.0" dy="0" fill="#202020">118</tspan></text>
    <path d="M386 757h39v56h-39Z" fill="#fff" stroke="#808080" stroke-width="1" stroke-linejoin="miter"/>
    <text x="405.5" y="785.0" fill="#202020" text-anchor="middle" dominant-baseline="middle" font-family="Arial, Helvetica, sans-serif" font-size="7.5" font-weight="600" style="white-space: pre;"><tspan x="405.5" dy="0" fill="#202020">S116</tspan></text>
    <path d="M425 757h35v56h-35Z" fill="#fff" stroke="#808080" stroke-width="1" stroke-linejoin="miter"/>
    <text x="442.5" y="785.0" fill="#202020" text-anchor="middle" dominant-baseline="middle" font-family="Arial, Helvetica, sans-serif" font-size="7.3" font-weight="600" style="white-space: pre;"><tspan x="442.5" dy="0" fill="#202020">T114</tspan></text>
    <path d="M460 757H500V813H460Z" fill="#fff" stroke="#808080" stroke-width="1" stroke-linejoin="miter"/>
    <path d="M466 761H494" fill="none" stroke="#808080" stroke-width="0.65" stroke-linejoin="miter"/>
    <path d="M466 765H494" fill="none" stroke="#808080" stroke-width="0.65" stroke-linejoin="miter"/>
    <path d="M466 769H494" fill="none" stroke="#808080" stroke-width="0.65" stroke-linejoin="miter"/>
    <path d="M466 773H494" fill="none" stroke="#808080" stroke-width="0.65" stroke-linejoin="miter"/>
    <path d="M466 777H494" fill="none" stroke="#808080" stroke-width="0.65" stroke-linejoin="miter"/>
    <path d="M466 781H494" fill="none" stroke="#808080" stroke-width="0.65" stroke-linejoin="miter"/>
    <path d="M466 785H494" fill="none" stroke="#808080" stroke-width="0.65" stroke-linejoin="miter"/>
    <path d="M466 789H494" fill="none" stroke="#808080" stroke-width="0.65" stroke-linejoin="miter"/>
    <path d="M529 638h37v58h-37Z" fill="#fff" stroke="#808080" stroke-width="1" stroke-linejoin="miter"/>
    <text x="547.5" y="667.0" fill="#202020" text-anchor="middle" dominant-baseline="middle" font-family="Arial, Helvetica, sans-serif" font-size="7.8" font-weight="600" style="white-space: pre;"><tspan x="547.5" dy="0" fill="#202020">103</tspan></text>
    <path d="M566 638h36v38h-36Z" fill="#fff" stroke="#808080" stroke-width="1" stroke-linejoin="miter"/>
    <text x="584.0" y="657.0" fill="#202020" text-anchor="middle" dominant-baseline="middle" font-family="Arial, Helvetica, sans-serif" font-size="7.2" font-weight="600" style="white-space: pre;"><tspan x="584.0" dy="0" fill="#202020">105A</tspan></text>
    <path d="M566 676H636V727H529V696H566Z" fill="#fff" stroke="#808080" stroke-width="1" stroke-linejoin="miter"/>
    <text x="599" y="688.0" fill="#202020" text-anchor="middle" dominant-baseline="middle" font-family="Arial, Helvetica, sans-serif" font-size="8.8" font-weight="600" style="white-space: pre;"><tspan x="599" dy="0" fill="#202020">HELP DESK</tspan></text>
    <text x="599" y="703.0" fill="#202020" text-anchor="middle" dominant-baseline="middle" font-family="Arial, Helvetica, sans-serif" font-size="8" font-weight="600" style="white-space: pre;"><tspan x="599" dy="0" fill="#202020">105</tspan></text>
    <path d="M566 728h36v31h-36Z" fill="#fff" stroke="#808080" stroke-width="1" stroke-linejoin="miter"/>
    <text x="584.0" y="743.5" fill="#202020" text-anchor="middle" dominant-baseline="middle" font-family="Arial, Helvetica, sans-serif" font-size="6.8" font-weight="600" style="white-space: pre;"><tspan x="584.0" dy="0" fill="#202020">U107</tspan></text>
    <path d="M529 764h36v47h-36Z" fill="#fff" stroke="#808080" stroke-width="1" stroke-linejoin="miter"/>
    <text x="547.0" y="787.5" fill="#202020" text-anchor="middle" dominant-baseline="middle" font-family="Arial, Helvetica, sans-serif" font-size="7.8" font-weight="600" style="white-space: pre;"><tspan x="547.0" dy="0" fill="#202020">R108</tspan></text>
    <path d="M565 759h38v52h-38Z" fill="#fff" stroke="#808080" stroke-width="1" stroke-linejoin="miter"/>
    <text x="584.0" y="785.0" fill="#202020" text-anchor="middle" dominant-baseline="middle" font-family="Arial, Helvetica, sans-serif" font-size="7.8" font-weight="600" style="white-space: pre;"><tspan x="584.0" dy="0" fill="#202020">R106</tspan></text>
    <path d="M493 229L442 229" fill="none" stroke="#1E88D8" stroke-width="3.6" marker-end="url(#blue-arrow)"/>
    <path d="M362 229L310 229" fill="none" stroke="#1E88D8" stroke-width="3.6" marker-end="url(#blue-arrow)"/>
    <path d="M237 229L209 229" fill="none" stroke="#1E88D8" stroke-width="3.6" marker-end="url(#blue-arrow)"/>
    <path d="M210 225L210 260" fill="none" stroke="#1E88D8" stroke-width="3.6" marker-end="url(#blue-arrow)"/>
    <path d="M518 270L518 319" fill="none" stroke="#1E88D8" stroke-width="3.6" marker-end="url(#blue-arrow)"/>
    <path d="M518 389L518 441" fill="none" stroke="#1E88D8" stroke-width="3.6" marker-end="url(#blue-arrow)"/>
    <path d="M518 501L518 552" fill="none" stroke="#1E88D8" stroke-width="3.6" marker-end="url(#blue-arrow)"/>
    <path d="M518 594L518 642" fill="none" stroke="#1E88D8" stroke-width="3.6" marker-end="url(#blue-arrow)"/>
    <path d="M518 704L518 754" fill="none" stroke="#1E88D8" stroke-width="3.6" marker-end="url(#blue-arrow)"/>
    <path d="M518 617L547 617" fill="none" stroke="#1E88D8" stroke-width="3.6" marker-end="url(#blue-arrow)"/>
    <circle cx="517.167" cy="206.46" r="19" fill="#365f9d" stroke="#1c3563" stroke-width="1.4" fill-opacity="0.72"/>
    <path d="M 510.14 224.38 L 518.14 253.22 L 526.14 224.38 L 510.14 224.38 Z" fill="#365f9d" stroke="#1c3563" stroke-width="1.1" fill-opacity="0.72" style=""/>
    <rect x="481.603" y="153.671" width="33.376" height="43.388" style="stroke: rgb(0, 0, 0); fill: rgb(255, 255, 255);"/>
    <text style="white-space: pre; fill: rgb(51, 51, 51); font-family: &quot;Arial&quot;, sans-serif; font-size: 28px;" x="488.46" y="182.223" transform="matrix(0.490413, 0, 0, 0.454545, 242.260651, 102.283813)">T130</text>
  </g>
  <g transform="matrix(1, 0, 0, 1, 5.967788, -304.967285)">
    <rect x="82" y="372" width="74" height="32" fill="#b32121"/>
    <path d="M 92 388.0 L 110 388.0 M 92 388.0 L 100 381.0 M 92 388.0 L 100 395.0" stroke="#fff" stroke-width="4" fill="none" stroke-linecap="round" stroke-linejoin="round"/>
    <rect x="126" y="374" width="28" height="28" fill="#fff"/>
    <g fill="none" stroke="#b32121" stroke-width="2.24" stroke-linecap="round" stroke-linejoin="round">
      <circle cx="136.64" cy="380.16" r="2.24" fill="#b32121" stroke="#b32121"/>
      <path d="M 137.76 382.96 L 141.4 388.0 L 136.64 390.24 L 133.56 395.84 M 141.4 388.0 L 146.16 391.92 M 140.56 386.6 L 145.6 383.8 M 136.92 390.24 L 131.88 389.12"/>
    </g>
    <rect x="83" y="474" width="74" height="32" fill="#b32121"/>
    <path d="M 93 490.0 L 111 490.0 M 93 490.0 L 101 483.0 M 93 490.0 L 101 497.0" stroke="#fff" stroke-width="4" fill="none" stroke-linecap="round" stroke-linejoin="round"/>
    <rect x="127" y="476" width="28" height="28" fill="#fff"/>
    <g fill="none" stroke="#b32121" stroke-width="2.24" stroke-linecap="round" stroke-linejoin="round">
      <circle cx="137.64" cy="482.16" r="2.24" fill="#b32121" stroke="#b32121"/>
      <path d="M 138.76 484.96 L 142.4 490.0 L 137.64 492.24 L 134.56 497.84 M 142.4 490.0 L 147.16 493.92 M 141.56 488.6 L 146.6 485.8 M 137.92 492.24 L 132.88 491.12"/>
    </g>
    <rect x="460.033" y="643.139" width="82" height="32" fill="#b32121"/>
    <rect x="464.441" y="645.139" width="28" height="28" fill="#fff"/>
    <g fill="none" stroke="#b32121" stroke-width="2.24" stroke-linecap="round" stroke-linejoin="round" transform="matrix(1, 0, 0, 1, -48.171707, 94.53698)">
      <circle cx="526.36" cy="556.16" r="2.24" fill="#b32121" stroke="#b32121"/>
      <path d="M 525.24 558.96 L 521.6 564.0 L 526.36 566.24 L 529.44 571.84 M 521.6 564.0 L 516.84 567.92 M 522.44 562.6 L 517.4 559.8 M 526.08 566.24 L 531.12 565.12"/>
    </g>
    <path d="M 561 564.0 L 579 564.0 M 579 564.0 L 571 557.0 M 579 564.0 L 571 571.0" stroke="#fff" stroke-width="4" fill="none" stroke-linecap="round" stroke-linejoin="round"/>
    <rect x="403.474" y="827.499" width="32" height="72" fill="#b32121"/>
    <rect x="405.474" y="825.99" width="28" height="28" fill="#fff"/>
    <g fill="none" stroke="#b32121" stroke-width="2.24" stroke-linecap="round" stroke-linejoin="round" transform="matrix(1, 0, 0, 1, -55.281063, 132.499054)">
      <circle cx="476.36" cy="703.16" r="2.24" fill="#b32121" stroke="#b32121"/>
      <path d="M 475.24 705.96 L 471.6 711.0 L 476.36 713.24 L 479.44 718.84 M 471.6 711.0 L 466.84 714.92 M 472.44 709.6 L 467.4 706.8 M 476.08 713.24 L 481.12 712.12"/>
    </g>
    <path d="M 421.229 865.989 L 421.229 883.989 M 421.229 883.989 L 414.229 875.989 M 421.229 883.989 L 428.229 875.989" stroke="#fff" stroke-width="4" fill="none" stroke-linecap="round" stroke-linejoin="round"/>
    <path d="M 507.817 659.814 L 533.775 659.814 M 507.817 659.814 L 519.354 666.814 M 507.817 659.814 L 519.354 652.814" stroke="#fff" stroke-width="4" fill="none" stroke-linecap="round" stroke-linejoin="round" style="stroke-width: 4px; transform-origin: 520.796px 659.814px 0px;" transform="matrix(-1, 0, 0, -1, 0, 0)"/>
  </g>
  <g transform="matrix(1, 0, 0, 1, 580.37677, -171.021729)">
    <circle cx="0" cy="0" r="8" fill="none" stroke="#444" stroke-width="1.4"/>
    <circle cx="0" cy="0" r="2.5" fill="none" stroke="#444" stroke-width="1.2"/>
    <path d="M0 -35 L7 -5 L0 -8 L-7 -5 Z" fill="#222" stroke="#222" stroke-width="1"/>
    <path d="M0 35 L3 7 L0 10 L-3 7 Z" fill="none" stroke="#444" stroke-width="1"/>
    <path d="M-12 0 L-4 2 L-4 -2 Z" fill="none" stroke="#444" stroke-width="1"/>
    <path d="M12 0 L4 2 L4 -2 Z" fill="none" stroke="#444" stroke-width="1"/>
  </g>
  <text x="-47.623" y="-218.02" font-size="16" fill="#111" font-family="Times New Roman, serif" font-weight="400" text-anchor="middle" font-style="italic" style="white-space: pre; stroke-width: 1px;" transform="matrix(1.825397, 0, 0, 1, 657.590698, 106.378525)">N</text>
  <rect x="-17.623" y="81.978" width="73" height="390" fill="#d7ddd6" stroke="#bfc6be" stroke-width="1" style="stroke-width: 1px;"/>
  <circle cx="-1.623" cy="112.978" r="11" fill="#5a82b8" stroke="#2a4f7c" stroke-width="1.2" style="stroke-width: 1.2px;"/>
  <path d="M -5.623 122.978 L -1.623 136.978 L 2.377 122.978" fill="#5a82b8" stroke="#2a4f7c" stroke-width="1" style="stroke-width: 1px;"/>
  <text x="15.377" y="122.978" font-size="12" fill="#333" font-family="Times New Roman, serif" font-weight="600" text-anchor="start" style="white-space: pre; stroke-width: 1px;">You Are Here</text>
  <rect x="-14.623" y="138.978" width="16" height="12" fill="#b32121" style="stroke-width: 1px;"/>
  <path d="M 6.377 144.978 L 20.377 144.978" stroke="#b32121" stroke-width="3" fill="none" marker-end="url(#red-arrow)" style="stroke-width: 3px;"/>
  <text x="27.377" y="147.978" font-size="11" fill="#333" font-family="Times New Roman, serif" font-weight="400" text-anchor="start" style="white-space: pre; stroke-width: 1px;">Emergency</text>
  <text x="27.377" y="161.978" font-size="11" fill="#333" font-family="Times New Roman, serif" font-weight="400" text-anchor="start" style="white-space: pre; stroke-width: 1px;">Exit</text>
  <path d="M -14.623 181.978 L 20.377 181.978" stroke="#1E88D8" stroke-width="3" fill="none" marker-end="url(#blue-arrow)" style="stroke-width: 3px;"/>
  <text x="27.377" y="186.978" font-size="11" fill="#333" font-family="Times New Roman, serif" font-weight="400" text-anchor="start" style="white-space: pre; stroke-width: 1px;">Evacuation Path</text>
  <rect x="-14.623" y="335.978" width="18" height="18" fill="none" stroke="#333" stroke-width="1.1" style="stroke-width: 1.1px;"/>
  <path d="M -8.623 346.978 L -8.623 340.978 M -2.623 346.978 L -2.623 340.978 M -10.623 342.978 L -12.623 344.978 L -14.623 342.978 M -0.623 344.978 L 1.377 342.978 L 3.377 344.978" stroke="#333" stroke-width="1" fill="none" style="stroke-width: 1px;"/>
  <circle cx="-8.623" cy="339.978" r="1.3" fill="#333" style="stroke-width: 1px;"/>
  <circle cx="-2.623" cy="339.978" r="1.3" fill="#333" style="stroke-width: 1px;"/>
  <text x="9.377" y="348.978" font-size="11" fill="#333" font-family="Times New Roman, serif" font-weight="400" text-anchor="start" style="white-space: pre; stroke-width: 1px;">Elevator</text>
  <text x="292.377" y="623.978" font-size="22" fill="#b12b2b" font-family="Times New Roman, serif" font-weight="700" text-anchor="middle" style="white-space: pre; stroke-width: 1px;">Emergency Evacuation Plan</text>
  <text x="292.377" y="653.978" font-size="16" fill="#111" font-family="Times New Roman, serif" font-weight="700" text-anchor="middle" style="white-space: pre; stroke-width: 1px;">Hardman and Jacobs Undergraduate Learning Center (323)</text>
  <text x="292.377" y="678.978" font-size="16" fill="#111" font-family="Times New Roman, serif" font-weight="700" text-anchor="middle" style="white-space: pre; stroke-width: 1px;">2902 Mcfie Circle</text>
  <rect x="-23.623" y="-184.02" width="632" height="862" fill="none" stroke="#000" stroke-width="1" style="stroke-width: 1px;"/>
  <path d="M 449.979 273.519 L 449.979 267.519 M 455.979 273.519 L 455.979 267.519 M 447.979 269.519 L 445.979 271.519 L 443.979 269.519 M 457.979 271.519 L 459.979 269.519 L 461.979 271.519" stroke="#333" stroke-width="1" fill="none" style="stroke-width: 1px;"/>
  <rect x="443.365" y="262.849" width="18" height="18" fill="none" stroke="#333" stroke-width="1.1" style="stroke-width: 1.1px;"/>
</svg>